# xmcd CD database file
#
# Track frame offsets:
#	150
#	21417
#	44530
#	77055
#
# Disc length: 1119 seconds
#
# Revision: 0
# Processed by: cddbd v1.5PL3 Copyright (c) Steve Scherf et al.
# Submitted via: CDex 1.51
#
DISCID=2c045d04
DTITLE=favorite blue - Missing place
DYEAR=1998
DGENRE=JPop
TTITLE0=Missing place
TTITLE1=Missing place (GROOVE THAT SOUL MIX)
TTITLE2=Missing place (INSTRUMENTAL)
TTITLE3=CD-EXTRA
EXTD=YEAR: 1998
EXTT0=
EXTT1=
EXTT2=
EXTT3=
PLAYORDER=
